# xmcd CD database file
#
# Track frame offsets:
#	151
#	18270
#	49596
#	67566
#	85209
#	103868
#	117982
#	133557
#	151121
#	168966
#	191077
#	206053
#
# Disc length: 3012 seconds
#
# Revision: 0
# Processed by: cddbd v1.5.2PL0 Copyright (c) Steve Scherf et al.
# Submitted via: CDex 1.70beta1
#
DISCID=940bc20c
DTITLE=The Trombones Inc. - The Trombones Inc.
DYEAR=2006
DGENRE=Jazz
TTITLE0=Neckbones
TTITLE1=Dues Blues
TTITLE2=Long Before I Knew
TTITLE3=Soft Winds
TTITLE4=Tee Jay
TTITLE5=Lassus Trombone
TTITLE6=It's All Right With Me
TTITLE7=Polka Dots And Moonbeams
TTITLE8=Old Devil Moon
TTITLE9=Impossible
TTITLE10=Heat Wave
TTITLE11=I Found A New Baby
EXTD=YEAR: 2006
EXTT0=
EXTT1=
EXTT2=
EXTT3=
EXTT4=
EXTT5=
EXTT6=
EXTT7=
EXTT8=
EXTT9=
EXTT10=
EXTT11=
PLAYORDER=
